<svg id="svg" version="1.1" xmlns="http://www.w3.org/2000/svg" xmlns:xlink="http://www.w3.org/1999/xlink" width="400" height="400" viewBox="0, 0, 400,400"><g id="svgg"><path id="path0" d="M195.680 31.680 C 195.416 31.944,195.200 32.373,195.200 32.633 C 195.200 32.894,194.827 33.204,194.370 33.324 C 193.914 33.443,193.453 33.876,193.346 34.286 C 193.238 34.696,192.757 35.204,192.275 35.416 C 191.746 35.648,191.350 36.231,191.274 36.891 C 191.205 37.491,190.710 38.327,190.174 38.749 C 189.638 39.170,189.200 39.894,189.200 40.358 C 189.200 40.989,188.950 41.200,188.200 41.200 C 187.400 41.200,187.200 41.400,187.200 42.200 C 187.200 43.000,187.000 43.200,186.200 43.200 C 185.400 43.200,185.200 43.400,185.200 44.200 C 185.200 45.000,185.000 45.200,184.200 45.200 C 183.400 45.200,183.200 45.400,183.200 46.200 C 183.200 47.000,183.000 47.200,182.200 47.200 C 181.400 47.200,181.200 47.400,181.200 48.200 C 181.200 49.000,181.000 49.200,180.200 49.200 C 179.428 49.200,179.200 49.406,179.200 50.105 C 179.200 50.660,178.852 51.163,178.300 51.405 C 177.605 51.710,177.372 52.187,177.277 53.500 C 177.168 55.002,177.040 55.200,176.177 55.200 C 175.402 55.200,175.200 55.406,175.200 56.200 C 175.200 57.000,175.000 57.200,174.200 57.200 C 173.400 57.200,173.200 57.400,173.200 58.200 C 173.200 59.000,173.000 59.200,172.200 59.200 C 171.365 59.200,171.200 59.390,171.200 60.353 C 171.200 61.165,170.966 61.568,170.411 61.713 C 169.851 61.859,169.546 62.395,169.360 63.560 C 169.138 64.945,168.950 65.200,168.149 65.200 C 167.411 65.200,167.200 65.416,167.200 66.172 C 167.200 66.876,166.951 67.180,166.300 67.272 C 165.532 67.381,165.382 67.679,165.278 69.300 C 165.168 71.015,165.061 71.200,164.178 71.200 C 163.401 71.200,163.200 71.406,163.200 72.200 C 163.200 73.000,163.000 73.200,162.200 73.200 C 161.267 73.200,161.200 73.333,161.200 75.200 C 161.200 77.067,161.133 77.200,160.200 77.200 C 159.400 77.200,159.200 77.400,159.200 78.200 C 159.200 79.000,159.000 79.200,158.200 79.200 C 157.267 79.200,157.200 79.333,157.200 81.200 C 157.200 83.067,157.133 83.200,156.200 83.200 C 155.408 83.200,155.200 83.402,155.200 84.172 C 155.200 84.876,154.951 85.180,154.300 85.272 C 153.532 85.381,153.382 85.679,153.278 87.300 C 153.168 89.015,153.061 89.200,152.178 89.200 C 150.838 89.200,150.694 92.692,152.000 93.507 C 153.925 94.710,152.375 97.580,149.959 97.285 C 149.094 97.180,148.950 96.994,149.106 96.179 C 149.233 95.513,149.112 95.200,148.727 95.200 C 147.754 95.200,147.200 96.100,147.200 97.680 C 147.200 99.035,147.091 99.200,146.200 99.200 C 145.267 99.200,145.200 99.333,145.200 101.200 C 145.200 103.067,145.133 103.200,144.200 103.200 C 143.267 103.200,143.200 103.333,143.200 105.200 C 143.200 107.067,143.133 107.200,142.200 107.200 C 141.267 107.200,141.200 107.333,141.200 109.200 C 141.200 111.067,141.133 111.200,140.200 111.200 C 139.267 111.200,139.200 111.333,139.200 113.200 C 139.200 115.067,139.133 115.200,138.200 115.200 C 137.267 115.200,137.200 115.333,137.200 117.200 C 137.200 119.067,137.133 119.200,136.200 119.200 C 135.273 119.200,135.200 119.340,135.200 121.105 C 135.200 122.697,135.052 123.075,134.300 123.405 C 133.514 123.750,133.385 124.143,133.282 126.500 C 133.169 129.068,133.115 129.200,132.182 129.200 C 131.272 129.200,131.200 129.345,131.200 131.172 C 131.200 132.913,131.094 133.159,130.300 133.272 C 129.474 133.389,129.390 133.639,129.282 136.300 C 129.170 139.081,129.125 139.200,128.182 139.200 C 127.280 139.200,127.200 139.352,127.200 141.054 C 127.200 142.518,126.990 143.103,126.200 143.835 C 125.375 144.599,125.200 145.134,125.200 146.886 C 125.200 148.705,125.071 149.067,124.300 149.405 C 123.514 149.750,123.385 150.143,123.282 152.500 C 123.184 154.742,122.997 155.367,122.182 156.182 C 121.313 157.051,121.200 157.511,121.200 160.182 C 121.200 163.135,121.178 163.200,120.200 163.200 L 119.200 163.200 119.200 167.200 L 119.200 171.200 118.200 171.200 L 117.200 171.200 117.200 175.200 L 117.200 179.200 116.200 179.200 L 115.200 179.200 115.200 183.330 C 115.200 187.219,115.141 187.516,114.200 188.400 C 113.265 189.278,113.200 189.595,113.200 193.270 C 113.200 197.195,113.199 197.200,112.200 197.200 C 111.400 197.200,111.200 197.400,111.200 198.200 C 111.200 199.000,111.000 199.200,110.200 199.200 C 109.400 199.200,109.200 199.400,109.200 200.200 C 109.200 201.000,109.000 201.200,108.200 201.200 C 107.400 201.200,107.200 201.400,107.200 202.200 C 107.200 202.992,106.998 203.200,106.228 203.200 C 105.524 203.200,105.220 203.449,105.128 204.100 C 105.026 204.820,104.680 205.040,103.400 205.200 C 102.247 205.344,101.692 205.647,101.412 206.284 C 101.199 206.770,100.659 207.220,100.212 207.284 C 99.721 207.354,99.349 207.756,99.272 208.300 C 99.180 208.951,98.876 209.200,98.172 209.200 C 97.402 209.200,97.200 209.408,97.200 210.200 C 97.200 211.000,97.000 211.200,96.200 211.200 C 95.400 211.200,95.200 211.400,95.200 212.200 C 95.200 213.000,95.000 213.200,94.200 213.200 C 93.400 213.200,93.200 213.400,93.200 214.200 C 93.200 215.000,93.000 215.200,92.200 215.200 C 91.400 215.200,91.200 215.400,91.200 216.200 C 91.200 217.000,91.000 217.200,90.200 217.200 C 89.400 217.200,89.200 217.400,89.200 218.200 C 89.200 219.000,89.000 219.200,88.200 219.200 C 87.400 219.200,87.200 219.400,87.200 220.200 C 87.200 221.000,87.000 221.200,86.200 221.200 C 85.400 221.200,85.200 221.400,85.200 222.200 C 85.200 223.000,85.000 223.200,84.200 223.200 C 83.400 223.200,83.200 223.400,83.200 224.200 C 83.200 225.000,83.000 225.200,82.200 225.200 C 81.413 225.200,81.200 225.403,81.200 226.153 C 81.200 226.782,80.917 227.181,80.370 227.324 C 79.914 227.443,79.453 227.876,79.346 228.286 C 79.238 228.696,78.757 229.204,78.275 229.416 C 77.608 229.709,77.371 230.203,77.277 231.500 C 77.168 233.002,77.040 233.200,76.177 233.200 C 75.402 233.200,75.200 233.406,75.200 234.200 C 75.200 235.000,75.000 235.200,74.200 235.200 C 73.400 235.200,73.200 235.400,73.200 236.200 C 73.200 237.000,73.000 237.200,72.200 237.200 C 71.400 237.200,71.200 237.400,71.200 238.200 C 71.200 239.000,71.000 239.200,70.200 239.200 C 69.428 239.200,69.200 239.406,69.200 240.105 C 69.200 240.660,68.852 241.163,68.300 241.405 C 67.605 241.710,67.372 242.187,67.277 243.500 C 67.168 245.002,67.040 245.200,66.177 245.200 C 65.402 245.200,65.200 245.406,65.200 246.200 C 65.200 247.000,65.000 247.200,64.200 247.200 C 63.400 247.200,63.200 247.400,63.200 248.200 C 63.200 249.000,63.000 249.200,62.200 249.200 C 61.405 249.200,61.200 249.401,61.200 250.182 C 61.200 250.722,60.750 251.614,60.200 252.164 C 59.650 252.714,59.200 253.622,59.200 254.182 C 59.200 255.001,59.005 255.200,58.200 255.200 C 57.408 255.200,57.200 255.402,57.200 256.172 C 57.200 256.876,56.951 257.180,56.300 257.272 C 55.532 257.381,55.382 257.679,55.278 259.300 C 55.168 261.015,55.061 261.200,54.178 261.200 C 53.409 261.200,53.200 261.408,53.200 262.172 C 53.200 262.876,52.951 263.180,52.300 263.272 C 51.532 263.381,51.382 263.679,51.278 265.300 C 51.168 267.015,51.061 267.200,50.178 267.200 C 49.409 267.200,49.200 267.408,49.200 268.172 C 49.200 268.876,48.951 269.180,48.300 269.272 C 47.532 269.381,47.382 269.679,47.278 271.300 C 47.168 273.015,47.061 273.200,46.178 273.200 C 45.367 273.200,45.200 273.397,45.200 274.353 C 45.200 275.165,44.966 275.568,44.411 275.713 C 43.853 275.859,43.547 276.393,43.364 277.538 C 43.164 278.783,42.908 279.185,42.252 279.278 C 41.540 279.380,41.380 279.713,41.278 281.300 C 41.168 283.015,41.061 283.200,40.178 283.200 C 39.271 283.200,39.200 283.345,39.200 285.200 C 39.200 287.067,39.133 287.200,38.200 287.200 C 37.267 287.200,37.200 287.333,37.200 289.200 C 37.200 291.067,37.133 291.200,36.200 291.200 C 35.446 291.200,35.200 291.410,35.200 292.054 C 35.200 292.524,34.750 293.325,34.200 293.835 C 33.612 294.380,33.200 295.204,33.200 295.835 C 33.200 296.466,32.788 297.290,32.200 297.835 C 31.514 298.471,31.200 299.186,31.200 300.111 C 31.200 301.033,30.883 301.758,30.200 302.400 C 29.401 303.150,29.200 303.728,29.200 305.270 C 29.200 307.062,29.129 307.200,28.200 307.200 C 27.267 307.200,27.200 307.333,27.200 309.200 C 27.200 311.067,27.133 311.200,26.200 311.200 C 25.269 311.200,25.200 311.335,25.200 313.172 C 25.200 314.913,25.094 315.159,24.300 315.272 C 23.474 315.389,23.390 315.639,23.282 318.300 C 23.170 321.081,23.125 321.200,22.182 321.200 C 21.272 321.200,21.200 321.345,21.200 323.172 C 21.200 324.913,21.094 325.159,20.300 325.272 C 19.474 325.389,19.390 325.639,19.282 328.300 C 19.170 331.081,19.125 331.200,18.182 331.200 C 17.227 331.200,17.200 331.281,17.200 334.200 C 17.200 337.133,17.178 337.200,16.200 337.200 C 14.926 337.200,14.654 342.334,15.858 343.664 C 17.325 345.285,17.039 350.224,15.455 350.622 C 14.115 350.958,14.393 354.622,15.843 355.733 C 17.045 356.655,17.137 358.387,16.000 358.684 C 15.482 358.819,15.200 359.230,15.200 359.847 C 15.200 360.787,15.255 360.800,19.157 360.800 C 23.043 360.800,23.118 360.818,23.364 361.800 C 23.614 362.797,23.631 362.800,28.380 362.800 C 33.016 362.800,33.148 362.824,33.272 363.700 C 33.397 364.581,33.525 364.602,39.274 364.711 C 45.001 364.818,45.150 364.843,45.274 365.711 C 45.399 366.592,45.475 366.601,53.363 366.709 C 61.239 366.816,61.337 366.828,62.318 367.809 C 62.863 368.354,63.501 368.800,63.735 368.800 C 64.005 368.800,63.985 368.625,63.680 368.320 C 62.921 367.561,63.113 366.968,64.293 366.431 C 66.903 365.241,114.305 365.163,118.932 366.340 C 120.877 366.835,121.082 367.057,120.481 368.018 C 119.799 369.111,120.329 368.993,121.427 367.808 C 122.340 366.823,122.400 366.816,130.473 366.708 C 138.530 366.601,138.601 366.592,138.726 365.711 C 138.850 364.843,138.999 364.818,144.726 364.711 C 150.475 364.602,150.603 364.581,150.728 363.700 C 150.798 363.205,150.663 362.800,150.428 362.800 C 149.756 362.800,149.916 360.407,150.605 360.143 C 151.509 359.796,152.492 360.808,152.288 361.876 C 152.004 363.359,158.781 363.294,160.165 361.800 C 160.987 360.913,161.415 360.800,163.946 360.800 L 166.800 360.800 166.800 359.000 C 166.800 357.347,166.719 357.200,165.800 357.200 C 165.000 357.200,164.800 357.000,164.800 356.200 C 164.800 355.400,164.600 355.200,163.800 355.200 C 163.000 355.200,162.800 355.000,162.800 354.200 C 162.800 353.400,162.600 353.200,161.800 353.200 C 161.000 353.200,160.800 353.000,160.800 352.200 C 160.800 351.400,160.600 351.200,159.800 351.200 C 159.000 351.200,158.800 351.000,158.800 350.200 C 158.800 349.406,158.598 349.200,157.823 349.200 C 156.960 349.200,156.832 349.002,156.723 347.500 C 156.628 346.187,156.395 345.710,155.700 345.405 C 155.148 345.163,154.800 344.660,154.800 344.105 C 154.800 343.406,154.572 343.200,153.800 343.200 C 153.199 343.200,152.800 343.428,152.800 343.773 C 152.800 344.088,152.447 344.458,152.015 344.595 C 151.112 344.882,149.600 344.197,149.600 343.501 C 149.600 343.242,149.126 342.652,148.546 342.190 C 147.498 341.354,147.496 341.341,148.172 339.915 C 149.138 337.880,148.890 335.441,147.700 335.272 C 147.049 335.180,146.800 334.876,146.800 334.172 C 146.800 333.402,146.592 333.200,145.800 333.200 C 144.867 333.200,144.800 333.067,144.800 331.200 C 144.800 329.346,144.729 329.200,143.823 329.200 C 142.960 329.200,142.832 329.002,142.723 327.500 C 142.628 326.187,142.395 325.710,141.700 325.405 C 140.995 325.096,140.800 324.683,140.800 323.497 C 140.800 322.278,140.609 321.896,139.820 321.536 C 139.018 321.171,138.818 320.754,138.720 319.245 C 138.618 317.680,138.463 317.381,137.700 317.272 C 136.906 317.159,136.800 316.913,136.800 315.172 C 136.800 313.335,136.731 313.200,135.800 313.200 C 134.822 313.200,134.800 313.133,134.800 310.200 C 134.800 307.267,134.778 307.200,133.800 307.200 C 132.823 307.200,132.800 307.131,132.800 304.228 C 132.800 301.450,132.741 301.247,131.900 301.128 C 131.028 301.004,130.997 300.845,130.888 295.920 C 130.781 291.057,130.734 290.806,129.788 290.062 L 128.800 289.285 128.800 276.042 L 128.800 262.800 129.800 262.800 L 130.800 262.800 130.800 256.800 L 130.800 250.800 131.800 250.800 L 132.800 250.800 132.800 246.800 L 132.800 242.800 133.800 242.800 C 134.773 242.800,134.800 242.723,134.800 239.958 C 134.800 237.402,134.901 237.036,135.800 236.329 C 136.704 235.617,136.809 235.228,136.892 232.271 C 136.943 230.472,137.078 235.120,137.192 242.600 L 137.400 256.200 138.300 256.595 C 139.183 256.982,139.200 257.118,139.200 263.895 L 139.200 270.800 140.188 270.800 L 141.175 270.800 141.288 275.700 C 141.396 280.438,141.430 280.604,142.300 280.728 C 143.141 280.847,143.200 281.050,143.200 283.828 C 143.200 286.717,143.227 286.800,144.182 286.800 C 145.125 286.800,145.170 286.919,145.282 289.700 C 145.390 292.361,145.474 292.611,146.300 292.728 C 147.094 292.841,147.200 293.087,147.200 294.828 C 147.200 296.665,147.269 296.800,148.200 296.800 C 148.785 296.800,149.200 296.570,149.200 296.247 C 149.200 295.409,150.860 295.147,151.891 295.823 C 153.100 296.615,153.163 299.237,152.000 300.400 C 150.731 301.669,150.857 304.800,152.177 304.800 C 153.040 304.800,153.168 304.998,153.277 306.500 C 153.372 307.813,153.605 308.290,154.300 308.595 C 154.852 308.837,155.200 309.340,155.200 309.895 C 155.200 310.588,155.429 310.800,156.177 310.800 C 157.040 310.800,157.168 310.998,157.277 312.500 C 157.372 313.813,157.605 314.290,158.300 314.595 C 158.852 314.837,159.200 315.340,159.200 315.895 C 159.200 316.594,159.428 316.800,160.200 316.800 C 161.000 316.800,161.200 317.000,161.200 317.800 C 161.200 318.600,161.400 318.800,162.200 318.800 C 163.000 318.800,163.200 319.000,163.200 319.800 C 163.200 320.600,163.400 320.800,164.200 320.800 C 165.049 320.800,165.200 320.985,165.200 322.026 C 165.200 323.513,165.834 324.800,166.567 324.800 C 166.864 324.800,167.204 325.173,167.324 325.630 C 167.443 326.086,167.897 326.553,168.333 326.667 C 168.769 326.781,169.219 327.231,169.333 327.667 C 169.447 328.103,169.876 328.547,170.286 328.654 C 170.696 328.762,171.204 329.243,171.416 329.725 C 171.627 330.206,172.205 330.658,172.700 330.728 C 173.195 330.798,173.600 331.107,173.600 331.414 C 173.600 332.126,174.851 332.800,176.174 332.800 C 177.002 332.800,177.200 332.993,177.200 333.800 C 177.200 334.600,177.400 334.800,178.200 334.800 C 179.000 334.800,179.200 335.000,179.200 335.800 C 179.200 336.600,179.400 336.800,180.200 336.800 C 181.000 336.800,181.200 337.000,181.200 337.800 C 181.200 338.623,181.395 338.801,182.300 338.807 C 182.945 338.811,183.790 339.225,184.342 339.807 C 184.860 340.353,185.715 340.800,186.242 340.800 C 186.997 340.800,187.200 341.012,187.200 341.800 C 187.200 342.733,187.333 342.800,189.200 342.800 C 191.067 342.800,191.200 342.867,191.200 343.800 C 191.200 344.592,191.402 344.800,192.172 344.800 C 192.876 344.800,193.180 345.049,193.272 345.700 C 193.381 346.468,193.679 346.618,195.300 346.722 C 197.015 346.832,197.200 346.939,197.200 347.822 C 197.200 348.727,197.347 348.800,199.172 348.800 C 200.913 348.800,201.159 348.906,201.272 349.700 C 201.388 350.512,201.672 350.619,204.200 350.800 C 206.728 350.981,207.012 351.088,207.128 351.900 C 207.240 352.692,207.488 352.800,209.200 352.800 C 210.912 352.800,211.160 352.908,211.272 353.700 C 211.389 354.525,211.640 354.610,214.274 354.717 C 216.892 354.824,217.160 354.913,217.274 355.717 C 217.393 356.549,217.623 356.607,221.300 356.714 C 225.147 356.827,225.200 356.842,225.200 357.814 C 225.200 358.773,225.281 358.800,228.154 358.800 C 230.864 358.800,231.162 358.883,231.763 359.800 C 232.396 360.766,232.567 360.800,236.809 360.800 L 241.200 360.800 241.200 361.800 L 241.200 362.800 245.300 362.807 C 249.142 362.813,249.459 362.876,250.342 363.807 C 251.246 364.760,251.483 364.800,256.224 364.800 C 260.960 364.800,261.205 364.841,262.164 365.800 L 263.164 366.800 271.282 366.792 C 276.912 366.787,280.381 366.595,282.600 366.168 C 286.586 365.400,327.353 365.291,331.400 366.037 C 332.720 366.280,338.069 366.566,343.287 366.671 L 352.773 366.863 353.805 365.832 C 354.811 364.826,354.969 364.800,360.190 364.800 C 365.515 364.800,366.800 364.486,366.800 363.184 C 366.800 362.987,368.915 362.775,371.500 362.713 C 375.938 362.606,376.222 362.550,376.595 361.700 C 376.966 360.855,377.229 360.800,380.895 360.800 C 384.794 360.800,384.800 360.798,384.800 359.800 C 384.800 359.067,385.013 358.800,385.600 358.800 C 386.565 358.800,386.563 358.823,385.747 356.785 C 384.913 354.699,385.175 350.070,386.159 349.519 C 387.545 348.743,386.848 341.600,385.386 341.600 C 384.927 341.600,384.800 340.991,384.800 338.791 C 384.800 336.184,384.728 335.950,383.800 335.527 C 382.937 335.134,382.800 334.811,382.800 333.164 C 382.800 331.490,382.690 331.240,381.900 331.128 C 381.074 331.011,380.990 330.761,380.882 328.100 C 380.770 325.334,380.720 325.200,379.800 325.200 C 378.880 325.200,378.830 325.066,378.718 322.300 C 378.610 319.639,378.526 319.389,377.700 319.272 C 376.906 319.159,376.800 318.913,376.800 317.172 C 376.800 315.335,376.731 315.200,375.800 315.200 C 374.867 315.200,374.800 315.067,374.800 313.200 C 374.800 311.343,374.730 311.200,373.818 311.200 C 372.885 311.200,372.831 311.068,372.718 308.500 C 372.616 306.160,372.482 305.748,371.718 305.413 C 371.027 305.110,370.811 304.634,370.718 303.213 C 370.619 301.694,370.457 301.380,369.721 301.275 C 368.979 301.169,368.823 300.856,368.721 299.275 C 368.619 297.693,368.462 297.380,367.721 297.275 C 366.979 297.169,366.823 296.856,366.721 295.275 C 366.619 293.693,366.462 293.380,365.721 293.275 C 364.979 293.169,364.823 292.856,364.721 291.275 C 364.618 289.679,364.466 289.381,363.700 289.272 C 362.971 289.169,362.800 288.890,362.800 287.801 C 362.800 286.523,361.972 285.200,361.171 285.200 C 360.967 285.200,360.800 284.750,360.800 284.200 C 360.800 283.400,360.600 283.200,359.800 283.200 C 358.867 283.200,358.800 283.067,358.800 281.200 C 358.800 279.345,358.729 279.200,357.822 279.200 C 356.939 279.200,356.832 279.015,356.722 277.300 C 356.618 275.679,356.468 275.381,355.700 275.272 C 355.049 275.180,354.800 274.876,354.800 274.172 C 354.800 273.402,354.592 273.200,353.800 273.200 C 352.867 273.200,352.800 273.067,352.800 271.200 C 352.800 269.333,352.733 269.200,351.800 269.200 C 350.961 269.200,350.800 269.011,350.800 268.029 C 350.800 267.256,350.460 266.590,349.800 266.071 C 349.190 265.592,348.800 264.878,348.800 264.242 C 348.800 263.397,348.611 263.200,347.800 263.200 C 347.050 263.200,346.800 262.989,346.800 262.358 C 346.800 261.894,346.350 261.161,345.800 260.729 C 345.081 260.163,344.800 259.557,344.800 258.571 C 344.800 257.375,344.672 257.200,343.800 257.200 C 343.000 257.200,342.800 257.000,342.800 256.200 C 342.800 255.400,342.600 255.200,341.800 255.200 C 340.882 255.200,340.800 255.053,340.800 253.408 C 340.800 251.829,340.681 251.585,339.800 251.364 C 339.082 251.184,338.800 250.843,338.800 250.157 C 338.800 249.403,338.588 249.200,337.800 249.200 C 337.000 249.200,336.800 249.000,336.800 248.200 C 336.800 247.406,336.598 247.200,335.823 247.200 C 334.960 247.200,334.832 247.002,334.723 245.500 C 334.628 244.187,334.395 243.710,333.700 243.405 C 333.148 243.163,332.800 242.660,332.800 242.105 C 332.800 241.406,332.572 241.200,331.800 241.200 C 331.000 241.200,330.800 241.000,330.800 240.200 C 330.800 239.400,330.600 239.200,329.800 239.200 C 329.000 239.200,328.800 239.000,328.800 238.200 C 328.800 237.400,328.600 237.200,327.800 237.200 C 327.000 237.200,326.800 237.000,326.800 236.200 C 326.800 235.406,326.598 235.200,325.823 235.200 C 324.960 235.200,324.832 235.002,324.723 233.500 C 324.629 232.198,324.393 231.709,323.716 231.412 C 323.230 231.199,322.780 230.659,322.716 230.212 C 322.646 229.721,322.244 229.349,321.700 229.272 C 321.049 229.180,320.800 228.876,320.800 228.172 C 320.800 227.402,320.592 227.200,319.800 227.200 C 319.000 227.200,318.800 227.000,318.800 226.200 C 318.800 225.400,318.600 225.200,317.800 225.200 C 317.000 225.200,316.800 225.000,316.800 224.200 C 316.800 223.400,316.600 223.200,315.800 223.200 C 315.000 223.200,314.800 223.000,314.800 222.200 C 314.800 221.400,314.600 221.200,313.800 221.200 C 313.000 221.200,312.800 221.000,312.800 220.200 C 312.800 219.400,312.600 219.200,311.800 219.200 C 311.000 219.200,310.800 219.000,310.800 218.200 C 310.800 217.400,310.600 217.200,309.800 217.200 C 309.000 217.200,308.800 217.000,308.800 216.200 C 308.800 215.400,308.600 215.200,307.800 215.200 C 307.000 215.200,306.800 215.000,306.800 214.200 C 306.800 213.400,306.600 213.200,305.800 213.200 C 305.000 213.200,304.800 213.000,304.800 212.200 C 304.800 211.486,304.584 211.200,304.043 211.200 C 303.570 211.200,303.193 210.826,303.036 210.200 C 302.815 209.319,302.571 209.200,300.992 209.200 C 299.347 209.200,299.200 209.282,299.200 210.200 C 299.200 211.000,299.000 211.200,298.200 211.200 C 297.267 211.200,297.200 211.333,297.200 213.200 C 297.200 215.067,297.133 215.200,296.200 215.200 C 295.428 215.200,295.200 215.406,295.200 216.105 C 295.200 216.660,294.852 217.163,294.300 217.405 C 293.605 217.710,293.372 218.187,293.277 219.500 C 293.168 221.002,293.040 221.200,292.177 221.200 C 291.429 221.200,291.200 221.412,291.200 222.105 C 291.200 222.660,290.852 223.163,290.300 223.405 C 289.605 223.710,289.372 224.187,289.277 225.500 C 289.168 227.002,289.040 227.200,288.177 227.200 C 287.402 227.200,287.200 227.406,287.200 228.200 C 287.200 228.817,287.427 229.200,287.792 229.200 C 288.602 229.200,288.990 231.003,288.557 232.755 C 287.950 235.210,285.200 234.856,285.200 232.323 C 285.200 230.909,283.522 230.802,283.256 232.199 C 283.172 232.638,282.675 233.395,282.152 233.880 C 281.551 234.437,281.200 235.211,281.200 235.981 C 281.200 237.015,281.048 237.200,280.200 237.200 C 279.400 237.200,279.200 237.400,279.200 238.200 C 279.200 239.000,279.000 239.200,278.200 239.200 C 277.400 239.200,277.200 239.400,277.200 240.200 C 277.200 241.000,277.000 241.200,276.200 241.200 C 275.400 241.200,275.200 241.400,275.200 242.200 C 275.200 243.000,275.000 243.200,274.200 243.200 C 273.400 243.200,273.200 243.400,273.200 244.200 C 273.200 245.000,273.000 245.200,272.200 245.200 C 271.400 245.200,271.200 245.400,271.200 246.200 C 271.200 247.000,271.000 247.200,270.200 247.200 C 269.400 247.200,269.200 247.400,269.200 248.200 C 269.200 249.000,269.000 249.200,268.200 249.200 C 267.400 249.200,267.200 249.400,267.200 250.200 C 267.200 251.000,267.000 251.200,266.200 251.200 C 265.406 251.200,265.200 251.402,265.200 252.177 C 265.200 253.040,265.002 253.168,263.500 253.277 C 262.187 253.372,261.710 253.605,261.405 254.300 C 261.163 254.852,260.660 255.200,260.105 255.200 C 259.406 255.200,259.200 255.428,259.200 256.200 C 259.200 257.000,259.000 257.200,258.200 257.200 C 257.406 257.200,257.200 257.402,257.200 258.177 C 257.200 259.040,257.002 259.168,255.500 259.277 C 254.187 259.372,253.710 259.605,253.405 260.300 C 253.163 260.852,252.660 261.200,252.105 261.200 C 251.406 261.200,251.200 261.428,251.200 262.200 C 251.200 263.072,251.025 263.200,249.829 263.200 C 248.527 263.200,247.200 264.022,247.200 264.829 C 247.200 265.033,246.750 265.200,246.200 265.200 C 245.406 265.200,245.200 265.401,245.200 266.178 C 245.200 267.061,245.015 267.168,243.300 267.278 C 241.679 267.382,241.381 267.532,241.272 268.300 C 241.168 269.034,240.909 269.189,239.872 269.140 C 238.663 269.083,238.654 269.072,239.700 268.913 C 240.553 268.784,240.800 268.528,240.800 267.773 C 240.800 267.002,241.007 266.800,241.800 266.800 C 242.594 266.800,242.800 266.599,242.800 265.822 C 242.800 264.939,242.985 264.832,244.700 264.722 C 246.304 264.619,246.619 264.464,246.725 263.725 C 246.802 263.179,247.179 262.802,247.725 262.725 C 248.270 262.647,248.647 262.270,248.725 261.725 C 248.802 261.179,249.179 260.802,249.725 260.725 C 250.270 260.647,250.647 260.270,250.725 259.725 C 250.802 259.179,251.179 258.802,251.725 258.725 C 252.270 258.647,252.647 258.270,252.725 257.725 C 252.802 257.179,253.179 256.802,253.725 256.725 C 254.420 256.626,254.675 256.210,254.967 254.700 C 255.280 253.081,255.472 252.800,256.267 252.800 C 256.996 252.800,257.200 252.581,257.200 251.800 C 257.200 251.000,257.400 250.800,258.200 250.800 C 258.992 250.800,259.200 250.598,259.200 249.828 C 259.200 249.124,259.449 248.820,260.100 248.728 C 260.663 248.648,261.046 248.279,261.122 247.741 C 261.190 247.268,261.581 246.794,261.991 246.686 C 262.525 246.547,262.816 245.967,263.014 244.646 C 263.254 243.044,263.417 242.800,264.245 242.800 C 264.985 242.800,265.200 242.585,265.200 241.847 C 265.200 241.243,265.482 240.820,265.969 240.692 C 266.527 240.546,266.812 239.992,267.011 238.668 C 267.229 237.214,267.458 236.820,268.142 236.722 C 268.859 236.620,269.020 236.291,269.121 234.725 C 269.223 233.144,269.379 232.831,270.121 232.725 C 270.862 232.620,271.019 232.307,271.121 230.725 C 271.223 229.144,271.379 228.831,272.121 228.725 C 272.861 228.620,273.019 228.306,273.120 226.741 C 273.210 225.352,273.422 224.835,273.960 224.695 C 274.740 224.490,275.200 222.881,275.200 220.350 C 275.200 219.099,275.345 218.800,275.953 218.800 C 276.923 218.800,277.188 217.763,277.195 213.928 C 277.200 211.048,277.256 210.848,278.100 210.728 C 278.968 210.605,279.004 210.432,279.113 205.854 C 279.217 201.507,279.301 201.047,280.113 200.389 C 280.992 199.678,281.001 199.557,281.117 186.336 C 281.244 171.895,281.192 171.200,279.992 171.200 C 279.239 171.200,279.200 170.915,279.200 165.374 C 279.200 159.615,278.936 158.185,277.742 157.480 C 277.364 157.257,277.200 156.266,277.200 154.206 C 277.200 150.911,276.725 149.200,275.810 149.200 C 275.342 149.200,275.199 148.713,275.195 147.100 C 275.187 144.292,274.853 143.200,274.001 143.200 C 273.423 143.200,273.264 142.756,273.118 140.741 C 272.982 138.859,272.742 138.120,272.096 137.597 C 271.520 137.131,271.212 136.356,271.126 135.157 C 271.020 133.686,270.854 133.379,270.100 133.272 C 269.347 133.165,269.200 132.896,269.200 131.622 C 269.200 129.130,268.762 127.642,267.952 127.385 C 267.413 127.214,267.200 126.767,267.200 125.806 C 267.200 123.959,266.844 123.200,265.979 123.200 C 265.386 123.200,265.220 122.833,265.122 121.300 C 265.019 119.693,264.864 119.381,264.121 119.275 C 263.379 119.169,263.223 118.856,263.121 117.275 C 263.018 115.679,262.866 115.381,262.100 115.272 C 261.306 115.159,261.200 114.913,261.200 113.172 C 261.200 111.335,261.131 111.200,260.200 111.200 C 259.267 111.200,259.200 111.067,259.200 109.200 C 259.200 107.345,259.129 107.200,258.222 107.200 C 257.339 107.200,257.232 107.015,257.122 105.300 C 257.019 103.693,256.864 103.381,256.121 103.275 C 255.379 103.169,255.223 102.856,255.121 101.275 C 255.010 99.562,254.905 99.389,253.900 99.273 C 252.866 99.154,252.800 99.029,252.800 97.173 C 252.800 95.335,252.732 95.200,251.800 95.200 C 250.882 95.200,250.800 95.053,250.800 93.408 C 250.800 91.829,250.681 91.585,249.800 91.364 C 249.082 91.184,248.800 90.843,248.800 90.157 C 248.800 89.403,248.588 89.200,247.800 89.200 C 246.867 89.200,246.800 89.067,246.800 87.200 C 246.800 85.346,246.729 85.200,245.823 85.200 C 244.960 85.200,244.832 85.002,244.723 83.500 C 244.628 82.187,244.395 81.710,243.700 81.405 C 243.148 81.163,242.800 80.660,242.800 80.105 C 242.800 79.412,242.571 79.200,241.823 79.200 C 240.960 79.200,240.832 79.002,240.723 77.500 C 240.628 76.187,240.395 75.710,239.700 75.405 C 239.148 75.163,238.800 74.660,238.800 74.105 C 238.800 73.412,238.571 73.200,237.823 73.200 C 236.960 73.200,236.832 73.002,236.723 71.500 C 236.628 70.187,236.395 69.710,235.700 69.405 C 235.148 69.163,234.800 68.660,234.800 68.105 C 234.800 67.406,234.572 67.200,233.800 67.200 C 233.000 67.200,232.800 67.000,232.800 66.200 C 232.800 65.400,232.600 65.200,231.800 65.200 C 230.882 65.200,230.800 65.053,230.800 63.408 C 230.800 61.829,230.681 61.585,229.800 61.364 C 229.082 61.184,228.800 60.843,228.800 60.157 C 228.800 59.403,228.588 59.200,227.800 59.200 C 227.000 59.200,226.800 59.000,226.800 58.200 C 226.800 57.400,226.600 57.200,225.800 57.200 C 224.899 57.200,224.800 57.041,224.800 55.591 C 224.800 54.264,224.625 53.903,223.800 53.527 C 223.148 53.230,222.800 52.746,222.800 52.136 C 222.800 51.404,222.582 51.200,221.800 51.200 C 221.000 51.200,220.800 51.000,220.800 50.200 C 220.800 49.400,220.600 49.200,219.800 49.200 C 219.000 49.200,218.800 49.000,218.800 48.200 C 218.800 47.400,218.600 47.200,217.800 47.200 C 217.000 47.200,216.800 47.000,216.800 46.200 C 216.800 45.400,216.600 45.200,215.800 45.200 C 215.000 45.200,214.800 45.000,214.800 44.200 C 214.800 43.406,214.598 43.200,213.823 43.200 C 212.960 43.200,212.832 43.002,212.723 41.500 C 212.629 40.203,212.392 39.709,211.725 39.416 C 211.243 39.204,210.762 38.696,210.654 38.286 C 210.547 37.876,210.096 37.446,209.652 37.330 C 209.208 37.213,208.790 36.732,208.722 36.259 C 208.646 35.721,208.263 35.352,207.700 35.272 C 207.049 35.180,206.800 34.876,206.800 34.172 C 206.800 32.935,205.607 32.875,203.400 34.000 C 201.323 35.059,198.425 35.063,197.210 34.008 C 196.708 33.573,196.140 33.313,195.948 33.432 C 195.159 33.920,195.671 32.396,196.489 31.823 C 197.110 31.388,197.194 31.200,196.769 31.200 C 196.434 31.200,195.944 31.416,195.680 31.680 M201.200 79.800 C 201.200 80.600,201.400 80.800,202.200 80.800 C 203.048 80.800,203.200 80.985,203.200 82.018 C 203.200 82.784,203.571 83.608,204.200 84.236 C 204.750 84.786,205.200 85.588,205.200 86.018 C 205.200 86.585,205.474 86.800,206.200 86.800 C 207.000 86.800,207.200 87.000,207.200 87.800 C 207.200 88.594,207.401 88.800,208.178 88.800 C 209.061 88.800,209.168 88.985,209.278 90.700 C 209.382 92.321,209.532 92.619,210.300 92.728 C 210.951 92.820,211.200 93.124,211.200 93.828 C 211.200 94.598,211.408 94.800,212.200 94.800 C 213.072 94.800,213.200 94.976,213.200 96.167 C 213.200 98.052,213.553 98.800,214.443 98.800 C 214.984 98.800,215.200 99.086,215.200 99.800 C 215.200 100.600,215.400 100.800,216.200 100.800 C 217.133 100.800,217.200 100.933,217.200 102.800 C 217.200 104.667,217.267 104.800,218.200 104.800 C 218.950 104.800,219.200 105.011,219.200 105.642 C 219.200 106.106,219.650 106.839,220.200 107.271 C 220.919 107.837,221.200 108.443,221.200 109.429 C 221.200 110.625,221.328 110.800,222.200 110.800 C 223.133 110.800,223.200 110.933,223.200 112.800 C 223.200 114.655,223.271 114.800,224.178 114.800 C 225.061 114.800,225.168 114.985,225.278 116.700 C 225.382 118.321,225.532 118.619,226.300 118.728 C 227.029 118.831,227.200 119.111,227.200 120.195 C 227.200 122.040,227.556 122.800,228.420 122.800 C 228.998 122.800,229.180 123.162,229.277 124.500 C 229.372 125.813,229.605 126.290,230.300 126.595 C 230.962 126.885,231.200 127.326,231.200 128.262 C 231.200 130.042,231.565 130.800,232.421 130.800 C 233.014 130.800,233.180 131.167,233.278 132.700 C 233.382 134.321,233.532 134.619,234.300 134.728 C 235.094 134.841,235.200 135.087,235.200 136.828 C 235.200 138.665,235.269 138.800,236.200 138.800 C 237.133 138.800,237.200 138.933,237.200 140.800 C 237.200 142.667,237.267 142.800,238.200 142.800 C 239.178 142.800,239.200 142.867,239.200 145.800 C 239.200 148.693,239.234 148.800,240.152 148.800 C 241.032 148.800,241.117 148.985,241.283 151.272 C 241.426 153.247,241.636 153.859,242.331 154.320 C 243.025 154.782,243.200 155.289,243.200 156.849 C 243.200 158.656,243.273 158.800,244.186 158.800 C 245.158 158.800,245.173 158.853,245.286 162.700 C 245.394 166.400,245.446 166.607,246.300 166.728 C 247.200 166.856,247.200 166.858,247.200 175.028 L 247.200 183.200 246.200 183.200 C 245.223 183.200,245.200 183.269,245.200 186.172 C 245.200 188.950,245.141 189.153,244.300 189.272 C 243.539 189.380,243.382 189.681,243.282 191.213 C 243.189 192.634,242.973 193.110,242.282 193.413 C 241.607 193.709,241.371 194.199,241.277 195.500 C 241.168 197.002,241.040 197.200,240.177 197.200 C 239.271 197.200,239.200 197.346,239.200 199.200 C 239.200 201.067,239.133 201.200,238.200 201.200 C 237.400 201.200,237.200 201.400,237.200 202.200 C 237.200 203.000,237.000 203.200,236.200 203.200 C 235.400 203.200,235.200 203.400,235.200 204.200 C 235.200 205.000,235.000 205.200,234.200 205.200 C 233.400 205.200,233.200 205.400,233.200 206.200 C 233.200 207.000,233.000 207.200,232.200 207.200 C 231.400 207.200,231.200 207.400,231.200 208.200 C 231.200 209.000,231.000 209.200,230.200 209.200 C 229.406 209.200,229.200 209.402,229.200 210.177 C 229.200 211.040,229.002 211.168,227.500 211.277 C 226.187 211.372,225.710 211.605,225.405 212.300 C 225.163 212.852,224.660 213.200,224.105 213.200 C 223.406 213.200,223.200 213.428,223.200 214.200 C 223.200 215.133,223.067 215.200,221.200 215.200 C 219.343 215.200,219.200 215.270,219.200 216.182 C 219.200 217.125,219.081 217.170,216.300 217.282 C 213.639 217.390,213.389 217.474,213.272 218.300 C 213.149 219.168,212.995 219.200,208.953 219.200 C 204.996 219.200,204.710 219.256,203.835 220.200 C 202.583 221.551,196.800 221.750,196.800 220.443 C 196.800 219.361,196.072 219.200,191.167 219.200 L 186.800 219.200 186.800 218.200 C 186.800 217.222,186.733 217.200,183.800 217.200 C 180.867 217.200,180.800 217.178,180.800 216.200 C 180.800 215.267,180.667 215.200,178.800 215.200 C 176.933 215.200,176.800 215.133,176.800 214.200 C 176.800 213.400,176.600 213.200,175.800 213.200 C 175.000 213.200,174.800 213.000,174.800 212.200 C 174.800 211.267,174.667 211.200,172.800 211.200 C 170.933 211.200,170.800 211.133,170.800 210.200 C 170.800 209.400,170.600 209.200,169.800 209.200 C 169.000 209.200,168.800 209.000,168.800 208.200 C 168.800 207.400,168.600 207.200,167.800 207.200 C 167.000 207.200,166.800 207.000,166.800 206.200 C 166.800 205.400,166.600 205.200,165.800 205.200 C 165.000 205.200,164.800 205.000,164.800 204.200 C 164.800 203.400,164.600 203.200,163.800 203.200 C 163.000 203.200,162.800 203.000,162.800 202.200 C 162.800 201.400,162.600 201.200,161.800 201.200 C 161.000 201.200,160.800 201.000,160.800 200.200 C 160.800 199.400,160.600 199.200,159.800 199.200 C 159.000 199.200,158.800 199.000,158.800 198.200 C 158.800 197.400,158.600 197.200,157.800 197.200 C 157.000 197.200,156.800 197.000,156.800 196.200 C 156.800 195.400,156.600 195.200,155.800 195.200 C 155.000 195.200,154.800 195.000,154.800 194.200 C 154.800 193.400,154.600 193.200,153.800 193.200 C 153.183 193.200,152.800 193.427,152.800 193.792 C 152.800 194.911,150.749 195.032,149.937 193.960 C 149.536 193.432,148.824 192.613,148.355 192.140 C 147.540 191.318,147.531 191.221,148.151 189.978 C 148.618 189.043,148.800 187.571,148.800 184.739 C 148.800 180.804,148.801 180.800,149.800 180.800 C 150.622 180.800,150.800 180.606,150.800 179.711 L 150.800 178.622 150.177 179.511 C 149.286 180.783,149.083 180.648,148.300 178.262 C 147.289 175.185,147.380 173.366,148.600 172.235 C 149.351 171.539,149.600 170.903,149.600 169.683 C 149.600 167.849,150.448 166.721,151.751 166.822 C 154.818 167.062,154.800 167.079,154.800 163.828 C 154.800 161.050,154.859 160.847,155.700 160.728 C 156.526 160.611,156.610 160.361,156.718 157.700 C 156.830 154.919,156.875 154.800,157.818 154.800 C 158.773 154.800,158.800 154.719,158.800 151.800 C 158.800 148.867,158.822 148.800,159.800 148.800 C 160.733 148.800,160.800 148.667,160.800 146.800 C 160.800 144.933,160.867 144.800,161.800 144.800 C 162.778 144.800,162.800 144.733,162.800 141.800 C 162.800 138.867,162.822 138.800,163.800 138.800 C 164.733 138.800,164.800 138.667,164.800 136.800 C 164.800 134.933,164.867 134.800,165.800 134.800 C 166.733 134.800,166.800 134.667,166.800 132.800 C 166.800 130.933,166.867 130.800,167.800 130.800 C 168.733 130.800,168.800 130.667,168.800 128.800 C 168.800 126.933,168.867 126.800,169.800 126.800 C 170.733 126.800,170.800 126.667,170.800 124.800 C 170.800 122.933,170.867 122.800,171.800 122.800 C 172.733 122.800,172.800 122.667,172.800 120.800 C 172.800 118.933,172.867 118.800,173.800 118.800 C 174.733 118.800,174.800 118.667,174.800 116.800 C 174.800 114.933,174.867 114.800,175.800 114.800 C 176.733 114.800,176.800 114.667,176.800 112.800 C 176.800 110.933,176.867 110.800,177.800 110.800 C 178.592 110.800,178.800 110.598,178.800 109.828 C 178.800 109.124,179.049 108.820,179.700 108.728 C 180.468 108.619,180.618 108.321,180.722 106.700 C 180.832 104.985,180.939 104.800,181.822 104.800 C 182.729 104.800,182.800 104.655,182.800 102.800 C 182.800 100.933,182.867 100.800,183.800 100.800 C 184.600 100.800,184.800 100.600,184.800 99.800 C 184.800 99.000,185.000 98.800,185.800 98.800 C 186.733 98.800,186.800 98.667,186.800 96.800 C 186.800 94.933,186.867 94.800,187.800 94.800 C 188.600 94.800,188.800 94.600,188.800 93.800 C 188.800 93.000,189.000 92.800,189.800 92.800 C 190.733 92.800,190.800 92.667,190.800 90.800 C 190.800 88.933,190.867 88.800,191.800 88.800 C 192.600 88.800,192.800 88.600,192.800 87.800 C 192.800 87.000,193.000 86.800,193.800 86.800 C 194.592 86.800,194.800 86.598,194.800 85.828 C 194.800 85.124,195.049 84.820,195.700 84.728 C 196.468 84.619,196.618 84.321,196.722 82.700 C 196.832 80.985,196.939 80.800,197.822 80.800 C 198.599 80.800,198.800 80.594,198.800 79.800 C 198.800 78.956,198.987 78.800,200.000 78.800 C 201.013 78.800,201.200 78.956,201.200 79.800 M139.076 226.700 C 138.975 227.085,138.893 226.770,138.893 226.000 C 138.893 225.230,138.975 224.915,139.076 225.300 C 139.176 225.685,139.176 226.315,139.076 226.700 M150.000 363.176 C 150.000 363.717,149.271 364.091,148.793 363.796 C 148.570 363.658,148.491 363.377,148.617 363.172 C 148.917 362.687,150.000 362.690,150.000 363.176 M279.200 367.933 C 279.200 368.466,279.450 368.800,279.849 368.800 C 280.404 368.800,280.421 368.699,279.962 368.100 C 279.667 367.715,279.375 367.325,279.313 367.233 C 279.251 367.142,279.200 367.457,279.200 367.933 M335.900 368.033 C 335.230 368.767,335.235 368.800,336.000 368.800 C 336.533 368.800,336.800 368.533,336.800 368.000 C 336.800 367.052,336.796 367.052,335.900 368.033 " stroke="none" fill="#040404" fill-rule="evenodd"></path><path id="path1" d="M196.489 31.823 C 193.885 33.647,201.244 34.660,204.485 32.924 C 204.642 32.840,204.417 32.417,203.985 31.985 C 202.961 30.961,197.877 30.851,196.489 31.823 M149.200 94.714 C 149.200 96.151,149.287 96.277,150.257 96.240 C 152.510 96.154,152.513 93.543,150.260 93.273 C 149.272 93.155,149.200 93.254,149.200 94.714 M150.577 168.872 C 150.053 170.525,150.793 172.800,151.855 172.800 C 153.303 172.800,153.160 168.228,151.709 168.155 C 151.159 168.127,150.727 168.401,150.577 168.872 M148.800 176.816 L 148.800 179.231 149.686 178.405 C 150.722 177.441,151.108 175.242,150.329 174.748 C 149.103 173.971,148.800 174.381,148.800 176.816 M149.039 189.494 C 148.528 190.005,148.836 191.116,149.539 191.300 C 149.969 191.412,150.379 191.997,150.519 192.695 C 150.725 193.727,150.904 193.869,151.780 193.702 C 153.004 193.468,153.244 191.712,152.100 191.359 C 150.898 190.987,150.197 190.490,150.287 190.075 C 150.389 189.609,149.390 189.143,149.039 189.494 M285.200 230.586 C 285.200 231.784,286.479 233.327,286.980 232.732 C 288.381 231.070,288.059 229.200,286.373 229.200 C 285.301 229.200,285.200 229.320,285.200 230.586 M149.900 296.678 C 148.624 297.007,148.910 300.800,150.210 300.800 C 151.432 300.800,152.094 299.409,151.654 297.764 C 151.338 296.584,151.023 296.389,149.900 296.678 M149.039 339.494 C 148.520 340.013,148.841 341.118,149.566 341.307 C 149.989 341.418,150.392 341.932,150.466 342.454 C 150.694 344.062,152.800 344.037,152.800 342.427 C 152.800 341.402,152.644 341.200,151.849 341.200 C 150.910 341.200,149.806 340.327,150.221 339.913 C 150.338 339.795,150.174 339.599,149.856 339.477 C 149.538 339.355,149.171 339.363,149.039 339.494 M13.467 343.467 C 13.320 343.613,13.200 344.951,13.200 346.439 C 13.200 348.940,13.132 349.154,12.300 349.272 C 10.882 349.474,10.678 356.671,12.085 356.870 C 12.678 356.954,13.045 357.317,13.128 357.900 C 13.227 358.600,13.517 358.800,14.428 358.800 C 15.861 358.800,16.072 357.382,14.800 356.293 C 14.345 355.903,14.000 355.113,14.000 354.460 C 14.000 353.828,13.886 352.477,13.746 351.456 C 13.536 349.924,13.602 349.600,14.123 349.600 C 14.910 349.600,16.001 348.094,15.998 347.011 C 15.990 344.352,14.570 342.363,13.467 343.467 M386.439 350.460 C 385.243 353.890,386.693 359.947,388.320 358.320 C 389.372 357.268,388.946 349.200,387.839 349.200 C 387.121 349.200,386.767 349.518,386.439 350.460 M286.257 366.277 C 286.080 366.455,284.758 366.690,283.320 366.800 C 280.711 366.999,280.706 367.002,281.452 367.819 C 281.863 368.269,282.059 368.423,281.886 368.161 C 281.666 367.828,282.084 367.860,283.268 368.268 C 285.815 369.146,332.313 368.897,333.416 368.000 C 334.072 367.467,334.115 367.467,333.808 368.000 C 333.608 368.347,333.847 368.262,334.374 367.800 L 335.285 367.000 311.742 366.787 C 298.794 366.669,287.835 366.434,287.390 366.263 C 286.944 366.093,286.435 366.099,286.257 366.277 M64.000 367.353 C 64.000 367.658,64.405 368.049,64.900 368.224 C 66.144 368.662,116.400 368.915,116.400 368.483 C 116.400 368.293,116.715 368.138,117.100 368.140 C 119.243 368.149,120.000 367.956,120.000 367.400 C 120.000 366.872,116.622 366.800,92.000 366.800 C 68.427 366.800,64.000 366.887,64.000 367.353 " stroke="none" fill="#343434" fill-rule="evenodd"></path><path id="path2" d="M202.510 34.050 C 202.232 34.328,201.126 34.433,199.626 34.324 C 198.288 34.228,197.420 34.292,197.696 34.468 C 198.544 35.006,202.147 34.815,202.976 34.187 C 203.404 33.864,203.575 33.600,203.356 33.600 C 203.138 33.600,202.757 33.803,202.510 34.050 M151.900 93.599 C 153.197 95.054,152.201 96.775,150.020 96.847 L 148.600 96.895 149.800 97.168 C 152.210 97.717,153.961 94.976,152.100 93.568 C 151.504 93.118,151.475 93.122,151.900 93.599 M150.229 167.429 C 149.863 167.794,149.600 168.738,149.600 169.683 C 149.600 170.903,149.351 171.539,148.600 172.235 C 147.442 173.308,147.258 175.775,148.186 177.800 C 148.844 179.239,148.954 178.731,148.401 176.802 C 147.931 175.165,148.540 172.800,149.431 172.800 C 149.859 172.800,150.000 172.211,150.000 170.420 C 150.000 167.858,150.550 167.105,152.119 167.515 C 152.663 167.658,152.832 167.576,152.639 167.263 C 152.231 166.604,150.967 166.691,150.229 167.429 M147.964 190.295 C 147.622 191.195,147.677 191.498,148.274 191.995 C 148.673 192.328,149.319 193.095,149.709 193.700 C 150.446 194.843,151.372 195.078,152.400 194.382 C 152.851 194.076,152.741 194.035,151.958 194.217 C 150.859 194.471,149.600 193.615,149.600 192.614 C 149.600 192.323,149.308 191.974,148.951 191.837 C 148.471 191.652,148.364 191.278,148.541 190.394 C 148.840 188.899,148.516 188.844,147.964 190.295 M288.230 230.200 C 288.633 232.315,287.804 233.741,286.343 233.449 C 285.272 233.234,285.171 233.283,285.600 233.800 C 287.379 235.944,289.985 232.027,288.394 229.600 C 288.110 229.165,288.064 229.331,288.230 230.200 M149.800 295.600 C 149.116 295.894,149.176 295.948,150.220 295.972 C 152.273 296.019,153.062 297.882,151.978 300.126 C 151.570 300.970,151.577 300.974,152.178 300.224 C 153.135 299.029,152.986 296.575,151.911 295.823 C 150.914 295.125,150.908 295.124,149.800 295.600 M147.963 340.296 C 147.599 341.255,147.676 341.496,148.573 342.211 C 149.138 342.662,149.600 343.252,149.600 343.524 C 149.600 344.343,151.393 344.961,152.256 344.439 C 152.897 344.051,152.852 344.022,151.932 344.230 C 151.061 344.426,150.731 344.262,150.138 343.335 C 149.738 342.711,149.157 342.003,148.847 341.762 C 148.472 341.472,148.372 340.968,148.549 340.262 C 148.898 338.871,148.496 338.894,147.963 340.296 M15.775 344.200 C 16.843 346.267,16.602 348.978,15.253 350.071 C 13.767 351.274,13.959 355.135,15.559 356.256 C 16.200 356.705,16.421 357.180,16.295 357.837 C 16.196 358.353,16.270 358.681,16.458 358.564 C 17.145 358.140,16.778 356.450,15.843 355.733 C 14.393 354.622,14.115 350.958,15.455 350.622 C 17.052 350.221,17.328 345.146,15.833 343.670 C 15.195 343.040,15.192 343.072,15.775 344.200 M385.263 353.254 C 385.226 354.578,385.457 356.064,385.822 356.854 C 386.196 357.664,386.335 357.802,386.170 357.200 C 386.019 356.650,385.767 355.030,385.611 353.600 L 385.326 351.000 385.263 353.254 M150.267 360.267 C 149.860 360.674,149.949 362.800,150.373 362.800 C 150.579 362.800,150.822 362.305,150.913 361.700 L 151.080 360.600 151.140 361.733 C 151.205 362.960,152.101 363.046,152.333 361.848 C 152.568 360.633,151.057 359.477,150.267 360.267 M76.371 365.607 C 69.316 365.782,65.064 366.045,64.571 366.337 C 63.968 366.693,64.322 366.728,66.200 366.496 C 69.191 366.127,112.167 366.103,116.800 366.468 C 119.301 366.665,119.830 366.633,118.800 366.347 C 118.030 366.133,111.910 365.800,105.200 365.605 C 91.784 365.217,92.102 365.217,76.371 365.607 M285.309 365.668 C 284.919 365.816,283.610 366.122,282.400 366.348 L 280.200 366.759 282.400 366.560 C 283.610 366.451,285.158 366.164,285.840 365.922 C 286.521 365.681,287.532 365.597,288.085 365.735 C 288.638 365.874,298.521 366.062,310.046 366.152 C 321.570 366.242,331.986 366.436,333.192 366.583 C 334.397 366.730,335.297 366.763,335.191 366.658 C 334.239 365.705,287.652 364.782,285.309 365.668 " stroke="none" fill="#080404" fill-rule="evenodd"></path><path id="path3" d="M197.200 33.578 C 197.200 34.568,201.370 34.700,203.054 33.763 C 204.116 33.173,204.127 33.145,203.200 33.379 C 200.758 33.995,199.569 34.068,198.426 33.669 C 197.752 33.434,197.200 33.393,197.200 33.578 M151.633 93.901 C 152.324 95.011,151.731 96.194,150.476 96.212 C 150.017 96.219,149.513 96.354,149.355 96.512 C 149.196 96.670,149.601 96.800,150.253 96.800 C 152.283 96.800,153.210 94.767,151.736 93.549 C 151.128 93.046,151.119 93.076,151.633 93.901 M150.657 167.672 C 150.162 167.949,150.000 168.629,150.000 170.420 C 150.000 172.211,149.859 172.800,149.431 172.800 C 148.595 172.800,147.937 175.157,148.371 176.600 C 148.717 177.752,148.733 177.730,148.766 176.057 C 148.799 174.376,148.838 174.323,149.860 174.579 L 150.919 174.845 150.660 172.055 C 150.347 168.690,150.542 168.042,151.828 168.183 C 152.363 168.242,152.800 168.156,152.800 167.992 C 152.800 167.495,151.358 167.280,150.657 167.672 M149.886 178.182 C 149.113 178.752,148.613 180.400,149.214 180.400 C 149.704 180.400,150.912 178.529,150.738 178.041 C 150.659 177.821,150.293 177.882,149.886 178.182 M148.446 190.713 C 148.421 191.214,148.654 191.722,148.964 191.841 C 149.274 191.961,149.634 192.483,149.765 193.002 C 150.047 194.128,151.306 194.625,152.292 194.000 C 152.894 193.618,152.833 193.577,151.880 193.724 C 150.900 193.875,150.729 193.746,150.519 192.695 C 150.383 192.013,149.968 191.412,149.561 191.306 C 149.166 191.202,148.764 190.821,148.668 190.459 C 148.551 190.019,148.477 190.103,148.446 190.713 M287.803 229.885 C 287.998 230.601,287.592 232.006,286.980 232.732 C 286.919 232.805,286.493 232.664,286.034 232.418 C 285.359 232.057,285.200 232.088,285.200 232.578 C 285.200 233.231,286.893 233.837,287.562 233.424 C 288.217 233.019,288.524 230.542,288.019 229.733 C 287.606 229.071,287.585 229.086,287.803 229.885 M149.200 296.415 C 149.200 296.643,149.678 296.778,150.263 296.715 C 151.536 296.577,152.194 298.195,151.573 299.938 C 151.218 300.937,151.231 300.954,151.798 300.224 C 152.519 299.293,152.589 297.149,151.920 296.480 C 151.332 295.892,149.200 295.841,149.200 296.415 M148.446 340.566 C 148.421 340.988,148.672 341.618,149.004 341.966 C 149.337 342.315,149.933 343.028,150.329 343.551 C 150.907 344.314,151.242 344.437,152.025 344.173 C 152.995 343.846,152.994 343.843,151.800 343.619 C 150.926 343.456,150.564 343.138,150.466 342.451 C 150.392 341.932,149.997 341.420,149.588 341.313 C 149.178 341.206,148.764 340.821,148.668 340.459 C 148.528 339.931,148.484 339.953,148.446 340.566 M15.738 345.548 C 16.183 347.721,15.440 349.600,14.136 349.600 C 13.599 349.600,13.534 349.910,13.746 351.456 C 13.886 352.477,14.000 353.828,14.000 354.460 C 14.000 355.113,14.345 355.903,14.800 356.293 C 15.240 356.670,15.600 357.398,15.600 357.913 C 15.600 358.434,15.777 358.738,16.000 358.600 C 16.696 358.170,16.433 356.869,15.522 356.230 C 13.929 355.114,13.801 351.268,15.314 349.980 C 16.560 348.920,16.828 345.068,15.732 343.972 C 15.468 343.708,15.470 344.242,15.738 345.548 M386.065 350.217 C 385.416 351.642,385.496 355.095,386.222 357.000 C 386.680 358.200,386.773 358.300,386.596 357.400 C 386.030 354.530,385.937 351.958,386.354 350.759 C 386.903 349.184,386.705 348.812,386.065 350.217 M148.800 363.433 C 148.800 363.782,149.014 363.995,149.275 363.908 C 150.017 363.661,150.140 362.800,149.433 362.800 C 149.085 362.800,148.800 363.085,148.800 363.433 M285.903 365.830 C 285.741 365.992,284.932 366.267,284.104 366.442 C 282.693 366.740,282.711 366.748,284.400 366.569 C 285.390 366.465,286.560 366.402,287.000 366.429 C 287.440 366.457,297.700 366.525,309.800 366.581 C 322.965 366.642,330.033 366.556,327.400 366.368 C 324.980 366.196,315.350 366.037,306.000 366.017 C 296.650 365.996,288.369 365.879,287.599 365.757 C 286.828 365.635,286.065 365.668,285.903 365.830 M70.000 366.400 C 67.470 366.532,77.190 366.645,91.600 366.651 C 106.010 366.657,115.730 366.536,113.200 366.383 C 107.675 366.049,76.481 366.061,70.000 366.400 M63.456 367.118 C 62.838 368.102,63.991 368.802,66.149 368.754 C 68.231 368.706,68.156 368.641,65.527 368.214 C 64.580 368.059,64.005 367.728,63.917 367.287 C 63.814 366.764,63.704 366.724,63.456 367.118 M120.000 367.400 C 120.000 367.956,119.243 368.149,117.100 368.140 C 116.715 368.138,116.400 368.287,116.400 368.471 C 116.400 368.963,119.986 368.745,120.306 368.235 C 120.733 367.551,120.764 366.800,120.365 366.800 C 120.164 366.800,120.000 367.070,120.000 367.400 M279.502 367.066 C 279.779 367.177,279.916 367.413,279.807 367.589 C 279.417 368.219,280.751 368.939,281.364 368.430 C 281.750 368.109,282.011 368.094,282.188 368.381 C 282.331 368.611,282.932 368.784,283.524 368.764 L 284.600 368.728 283.400 368.378 C 282.740 368.186,282.020 368.010,281.800 367.986 C 281.580 367.962,281.256 367.686,281.080 367.372 C 280.904 367.057,280.364 366.814,279.880 366.832 C 279.396 366.849,279.226 366.954,279.502 367.066 M334.831 367.329 C 334.572 367.588,334.234 367.816,334.080 367.835 C 333.926 367.854,333.530 367.980,333.200 368.115 C 332.870 368.250,332.150 368.435,331.600 368.526 C 330.902 368.641,331.053 368.707,332.100 368.746 C 333.060 368.780,333.602 368.620,333.606 368.300 C 333.611 367.932,333.703 367.943,333.956 368.343 C 334.389 369.026,335.861 368.607,336.370 367.656 C 336.815 366.824,335.595 366.565,334.831 367.329 " stroke="none" fill="#10201c" fill-rule="evenodd"></path><path id="path4" d="" stroke="none" fill="#100420" fill-rule="evenodd"></path></g></svg>