<?xml version="1.0" standalone="no"?>
<!DOCTYPE svg PUBLIC "-//W3C//DTD SVG 20010904//EN"
 "http://www.w3.org/TR/2001/REC-SVG-20010904/DTD/svg10.dtd">
<svg version="1.0" xmlns="http://www.w3.org/2000/svg"
 width="200.000000pt" height="200.000000pt" viewBox="0 0 200.000000 200.000000"
 preserveAspectRatio="xMidYMid meet">
<metadata>
Created by potrace 1.15, written by Peter Selinger 2001-2017
</metadata>
<g transform="translate(0.000000,200.000000) scale(0.100000,-0.100000)"
fill="#000000" stroke="none">
<path d="M918 1763 c-72 -86 -158 -211 -158 -230 0 -6 -4 -13 -9 -15 -28 -11
-123 -246 -160 -394 l-27 -113 -67 -61 c-129 -119 -255 -288 -335 -451 -51
-106 -94 -233 -90 -267 3 -25 9 -28 88 -45 129 -27 378 -33 518 -13 163 24
160 22 110 76 -56 60 -114 171 -134 255 -20 85 -14 202 14 290 l20 60 1 -60
c10 -433 310 -644 896 -631 162 4 319 26 343 50 17 16 -5 96 -61 223 -76 172
-199 354 -320 471 l-44 43 -34 -53 c-47 -74 -114 -143 -184 -193 -99 -70 -112
-71 -44 -3 116 116 166 249 155 411 -7 108 -38 204 -113 349 -82 162 -244 378
-283 378 -9 0 -46 -35 -82 -77z m145 -235 c99 -150 177 -329 177 -406 0 -81
-67 -175 -150 -210 -46 -20 -135 -19 -183 1 -21 9 -68 45 -103 79 -64 61 -66
64 -59 103 8 53 59 193 102 280 41 82 140 235 153 235 5 0 33 -37 63 -82z"/>
</g>
</svg>
